/* XPM */
static char * C:\Users\usuario\AppData\Roaming\FreeCAD\Mod\AirPlaneDesign\resources\icons\rib_xpm[] = {
"32 32 192 2",
"  	c None",
". 	c #0B1520",
"+ 	c #0C1621",
"@ 	c #0B1620",
"# 	c #0B1521",
"$ 	c #0A1521",
"% 	c #162A42",
"& 	c #2B4E7A",
"* 	c #3A669E",
"= 	c #4170AC",
"- 	c #4470A9",
"; 	c #426DA2",
"> 	c #3C618E",
", 	c #2D4A6D",
"' 	c #1B2C42",
") 	c #0C1521",
"! 	c #0C1724",
"~ 	c #264874",
"{ 	c #3A6BA8",
"] 	c #3E6EAB",
"^ 	c #4171AD",
"/ 	c #4474AF",
"( 	c #4777B1",
"_ 	c #4A7AB3",
": 	c #4D7DB6",
"< 	c #5080B8",
"[ 	c #5483BA",
"} 	c #4B72A2",
"| 	c #263C57",
"1 	c #0C1623",
"2 	c #0B1421",
"3 	c #0C1422",
"4 	c #274A76",
"5 	c #3868A7",
"6 	c #3B6BA9",
"7 	c #4B7AB4",
"8 	c #4E7DB6",
"9 	c #5180B8",
"0 	c #5786BC",
"a 	c #5A89BF",
"b 	c #4E76A3",
"c 	c #21354B",
"d 	c #172D47",
"e 	c #3566A5",
"f 	c #3869A7",
"g 	c #3B6CA9",
"h 	c #3E6FAB",
"i 	c #4272AD",
"j 	c #4575B0",
"k 	c #4878B2",
"l 	c #4B7BB4",
"m 	c #4E7EB6",
"n 	c #5583BB",
"o 	c #5886BD",
"p 	c #5B89BF",
"q 	c #5E8CC1",
"r 	c #608EC1",
"s 	c #395676",
"t 	c #0D1723",
"u 	c #0B1621",
"v 	c #264C7A",
"w 	c #3666A5",
"x 	c #3969A7",
"y 	c #3C6CA9",
"z 	c #3F6FAC",
"A 	c #4272AE",
"B 	c #4C7BB4",
"C 	c #4F7EB6",
"D 	c #5281B9",
"E 	c #5584BB",
"F 	c #5887BD",
"G 	c #5B8ABF",
"H 	c #5E8DC1",
"I 	c #6290C4",
"J 	c #6593C6",
"K 	c #51759F",
"L 	c #13202F",
"M 	c #0B1422",
"N 	c #305E98",
"O 	c #3667A5",
"P 	c #396AA8",
"Q 	c #3C6DAA",
"R 	c #3F70AC",
"S 	c #4373AE",
"T 	c #4676B0",
"U 	c #4978B2",
"V 	c #4C7BB5",
"W 	c #4F7EB7",
"X 	c #5987BD",
"Y 	c #5C8AC0",
"Z 	c #5F8DC2",
"` 	c #6896C8",
" .	c #5A82AC",
"..	c #0A1420",
"+.	c #3363A1",
"@.	c #3667A6",
"#.	c #3A6AA8",
"$.	c #3D6DAA",
"%.	c #4070AC",
"&.	c #4676B1",
"*.	c #4979B3",
"=.	c #4C7CB5",
"-.	c #507FB7",
";.	c #5382B9",
">.	c #5685BB",
",.	c #5988BE",
"'.	c #5C8BC0",
").	c #5F8EC2",
"!.	c #6693C6",
"~.	c #6996C9",
"{.	c #6C99CB",
"].	c #5D84AF",
"^.	c #2B5488",
"/.	c #3768A6",
"(.	c #3D6EAA",
"_.	c #4071AD",
":.	c #4373AF",
"<.	c #4776B1",
"[.	c #4A79B3",
"}.	c #4D7CB5",
"|.	c #5382BA",
"1.	c #5685BC",
"2.	c #5D8BC0",
"3.	c #608EC2",
"4.	c #6391C5",
"5.	c #6694C7",
"6.	c #6997C9",
"7.	c #6C9ACB",
"8.	c #6F9DCD",
"9.	c #5C82AB",
"0.	c #0E1826",
"a.	c #0B1622",
"b.	c #152941",
"c.	c #3565A1",
"d.	c #3A6BA9",
"e.	c #5A88BE",
"f.	c #608EC3",
"g.	c #6794C7",
"h.	c #6A97C9",
"i.	c #6D9ACB",
"j.	c #709DCE",
"k.	c #729FCF",
"l.	c #486788",
"m.	c #111F31",
"n.	c #223F63",
"o.	c #2C4E7B",
"p.	c #315685",
"q.	c #355B89",
"r.	c #3B6293",
"s.	c #426A9D",
"t.	c #4B79B0",
"u.	c #618FC3",
"v.	c #6492C5",
"w.	c #6795C7",
"x.	c #6A98CA",
"y.	c #6D9BCC",
"z.	c #709ECE",
"A.	c #314861",
"B.	c #0C1622",
"C.	c #152537",
"D.	c #294261",
"E.	c #41658F",
"F.	c #5785B9",
"G.	c #6795C8",
"H.	c #6B98CA",
"I.	c #6E9BCC",
"J.	c #719ECE",
"K.	c #6D99C7",
"L.	c #172635",
"M.	c #0B1420",
"N.	c #22364E",
"O.	c #3F5E81",
"P.	c #5E89B9",
"Q.	c #719ECF",
"R.	c #517397",
"S.	c #0D1824",
"T.	c #273B52",
"U.	c #496A8F",
"V.	c #6B97C6",
"W.	c #293D53",
"X.	c #111E2D",
"Y.	c #3C5673",
"Z.	c #6891BE",
"`.	c #648CB7",
" +	c #0E1925",
".+	c #324963",
"++	c #6288B3",
"@+	c #304660",
"#+	c #0B1522",
"$+	c #101B29",
"%+	c #3B5573",
"&+	c #24374C",
"                                                                ",
"                                                                ",
"                                                                ",
"                                                                ",
"              . + + .                                           ",
"        @ # # # # # # # # # $                                   ",
"      $ # % & * = - ; > , ' # # @                               ",
"    ) ! ~ { ] ^ / ( _ : < [ } | 1 # 2                           ",
"  3 # 4 5 6 ] ^ / ( 7 8 9 [ 0 a b c # )                         ",
"  # d e f g h i j k l m 9 n o p q r s t u                       ",
"  # v w x y z A j k B C D E F G H I J K L #                     ",
"M # N O P Q R S T U V W D E X Y Z I J `  .L #                   ",
"..# +.@.#.$.%.S &.*.=.-.;.>.,.'.).I !.~.{.].L #                 ",
"  # ^./.{ (._.:.<.[.}.-.|.1.,.2.3.4.5.6.7.8.9.0.a.              ",
"  # b.c.d.] ^ / ( _ : 9 [ 0 e.2.f.4.g.h.i.j.k.l.# @             ",
"    # m.n.o.p.q.r.s.t.9 [ 0 a q u.v.w.x.y.z.k.k.A.#             ",
"      ) # # # # # # B.C.D.E.F.q u.v.G.H.I.J.k.k.K.L.#           ",
"                    . M.# # 0.N.O.P.` H.I.Q.k.k.k.R.# ..        ",
"                            3 $ # S.T.U.V.k.k.k.k.k.W.#         ",
"                                  # # # X.Y.Z.k.k.k.`.t #       ",
"                                        # #  +.+++k.k.@+#       ",
"                                            #+# 1 A.Z.++1 2     ",
"                                                2 # $+%+&+#     ",
"                                                    # # a.#     ",
"                                                        # # #   ",
"                                                          #+u   ",
"                                                                ",
"                                                                ",
"                                                                ",
"                                                                ",
"                                                                ",
"                                                                "};
