<?xml version="1.0" encoding="UTF-8" standalone="no"?>
<svg
   xmlns:osb="http://www.openswatchbook.org/uri/2009/osb"
   xmlns:dc="http://purl.org/dc/elements/1.1/"
   xmlns:cc="http://creativecommons.org/ns#"
   xmlns:rdf="http://www.w3.org/1999/02/22-rdf-syntax-ns#"
   xmlns:svg="http://www.w3.org/2000/svg"
   xmlns="http://www.w3.org/2000/svg"
   xmlns:xlink="http://www.w3.org/1999/xlink"
   version="1.1"
   width="64"
   height="64"
   id="svg3799">
  <defs
     id="defs3801">
    <linearGradient
       id="linearGradient954">
      <stop
         id="stop950"
         offset="0"
         style="stop-color:#3465a4;stop-opacity:1" />
      <stop
         id="stop952"
         offset="1"
         style="stop-color:#729fcf;stop-opacity:1" />
    </linearGradient>
    <linearGradient
       id="linearGradient6588"
       osb:paint="solid">
      <stop
         style="stop-color:#729fcf;stop-opacity:1;"
         offset="0"
         id="stop6586" />
    </linearGradient>
    <linearGradient
       id="linearGradient6420">
      <stop
         style="stop-color:#204a87;stop-opacity:1"
         offset="0"
         id="stop6416" />
      <stop
         style="stop-color:#729fcf;stop-opacity:1"
         offset="1"
         id="stop6418" />
    </linearGradient>
    <marker
       refX="0"
       refY="0"
       orient="auto"
       id="EmptyTriangleOutL"
       style="overflow:visible">
      <path
         d="M 5.77,0 -2.88,5 V -5 Z"
         transform="matrix(0.8,0,0,0.8,-4.8,0)"
         id="path4487"
         style="fill:#ffffff;fill-rule:evenodd;stroke:#000000;stroke-width:1.00000003pt" />
    </marker>
    <marker
       refX="0"
       refY="0"
       orient="auto"
       id="DotS"
       style="overflow:visible">
      <path
         d="m -2.5,-1 c 0,2.76 -2.24,5 -5,5 -2.76,0 -5,-2.24 -5,-5 0,-2.76 2.24,-5 5,-5 2.76,0 5,2.24 5,5 z"
         transform="matrix(0.2,0,0,0.2,1.48,0.2)"
         id="path4394"
         style="fill-rule:evenodd;stroke:#000000;stroke-width:1.00000003pt" />
    </marker>
    <marker
       refX="0"
       refY="0"
       orient="auto"
       id="DotL"
       style="overflow:visible">
      <path
         d="m -2.5,-1 c 0,2.76 -2.24,5 -5,5 -2.76,0 -5,-2.24 -5,-5 0,-2.76 2.24,-5 5,-5 2.76,0 5,2.24 5,5 z"
         transform="matrix(0.8,0,0,0.8,5.92,0.8)"
         id="path4388"
         style="fill-rule:evenodd;stroke:#000000;stroke-width:1.00000003pt" />
    </marker>
    <marker
       refX="0"
       refY="0"
       orient="auto"
       id="Tail"
       style="overflow:visible">
      <g
         transform="scale(-1.2)"
         id="g4363">
        <path
           d="M -3.8048674,-3.9585227 0.54352094,0"
           id="path4365"
           style="fill:none;stroke:#000000;stroke-width:0.80000001;stroke-linecap:round" />
        <path
           d="M -1.2866832,-3.9585227 3.0617053,0"
           id="path4367"
           style="fill:none;stroke:#000000;stroke-width:0.80000001;stroke-linecap:round" />
        <path
           d="M 1.3053582,-3.9585227 5.6537466,0"
           id="path4369"
           style="fill:none;stroke:#000000;stroke-width:0.80000001;stroke-linecap:round" />
        <path
           d="M -3.8048674,4.1775838 0.54352094,0.21974226"
           id="path4371"
           style="fill:none;stroke:#000000;stroke-width:0.80000001;stroke-linecap:round" />
        <path
           d="M -1.2866832,4.1775838 3.0617053,0.21974226"
           id="path4373"
           style="fill:none;stroke:#000000;stroke-width:0.80000001;stroke-linecap:round" />
        <path
           d="M 1.3053582,4.1775838 5.6537466,0.21974226"
           id="path4375"
           style="fill:none;stroke:#000000;stroke-width:0.80000001;stroke-linecap:round" />
      </g>
    </marker>
    <marker
       refX="0"
       refY="0"
       orient="auto"
       id="Arrow1Sstart"
       style="overflow:visible">
      <path
         d="M 0,0 5,-5 -12.5,0 5,5 Z"
         transform="matrix(0.2,0,0,0.2,1.2,0)"
         id="path4339"
         style="fill-rule:evenodd;stroke:#000000;stroke-width:1.00000003pt" />
    </marker>
    <marker
       refX="0"
       refY="0"
       orient="auto"
       id="Arrow1Lstart"
       style="overflow:visible">
      <path
         d="M 0,0 5,-5 -12.5,0 5,5 Z"
         transform="matrix(0.8,0,0,0.8,10,0)"
         id="path4327"
         style="fill-rule:evenodd;stroke:#000000;stroke-width:1.00000003pt" />
    </marker>
    <linearGradient
       gradientTransform="matrix(0.82775163,0,0,1.2196792,4.0488477,-12.603453)"
       xlink:href="#linearGradient6420"
       id="linearGradient6422-9"
       x1="1.9827037"
       y1="29.503925"
       x2="47.648392"
       y2="39.313442"
       gradientUnits="userSpaceOnUse" />
    <linearGradient
       xlink:href="#linearGradient954"
       id="linearGradient6618"
       gradientUnits="userSpaceOnUse"
       gradientTransform="matrix(0.82775163,0,0,1.2196792,4.0488477,-12.603453)"
       x1="1.9827037"
       y1="29.503925"
       x2="47.648392"
       y2="39.313442" />
  </defs>
  <metadata
     id="metadata3804">
    <rdf:RDF>
      <cc:Work
         rdf:about="">
        <dc:format>image/svg+xml</dc:format>
        <dc:type
           rdf:resource="http://purl.org/dc/dcmitype/StillImage" />
        <dc:title></dc:title>
        <cc:license
           rdf:resource="http://creativecommons.org/publicdomain/zero/1.0/" />
      </cc:Work>
      <cc:License
         rdf:about="http://creativecommons.org/publicdomain/zero/1.0/">
        <cc:permits
           rdf:resource="http://creativecommons.org/ns#Reproduction" />
        <cc:permits
           rdf:resource="http://creativecommons.org/ns#Distribution" />
        <cc:permits
           rdf:resource="http://creativecommons.org/ns#DerivativeWorks" />
      </cc:License>
    </rdf:RDF>
  </metadata>
  <path
     xlink:href="#path940-2"
     style="fill:none;fill-opacity:1;stroke:#0b1521;stroke-width:6.54447985;stroke-linecap:round;stroke-linejoin:miter;stroke-miterlimit:4;stroke-dasharray:none;stroke-opacity:1"
     id="path6616"
     d="m 17.174351,11.889539 c -5.521465,-0.09019 -13.5792078,3.973698 -13.1729736,13.852609 1.7633499,8.125031 10.4866796,4.41792 19.1339466,6.442576 13.813085,3.728872 21.565525,6.52797 34.204721,13.959314 C 48.922893,25.711566 33.608421,11.485471 17.174351,11.889539 Z" />
  <path
     style="fill:url(#linearGradient6618);fill-opacity:1;stroke:#729fcf;stroke-width:2.09901524;stroke-linecap:round;stroke-linejoin:miter;stroke-miterlimit:4;stroke-dasharray:none;stroke-opacity:1"
     id="path940-2"
     d="m 17.174351,11.889539 c -5.521465,-0.09019 -13.5792078,3.973698 -13.1729736,13.852609 1.7633499,8.125031 10.4866796,4.41792 19.1339466,6.442576 13.813085,3.728872 21.565525,6.52797 34.204721,13.959314 C 48.922893,25.711566 33.608421,11.485471 17.174351,11.889539 Z" />
</svg>
