/* XPM */
static char *_f82520645db49de8f23e627985ad89fBvhBwi0TBLtiX5m8[] = {
/* columns rows colors chars-per-pixel */
"64 64 82 1 ",
"  c None",
". c #1F2835",
"X c #1F2A38",
"o c #222937",
"O c #222D3C",
"+ c #292E3F",
"@ c #243344",
"# c #2A3243",
"$ c #273649",
"% c #293648",
"& c #27384B",
"* c #29394D",
"= c #32364A",
"- c #35384F",
"; c #2B3D53",
": c #343E52",
"> c #3A3C55",
", c #3B3F59",
"< c #713748",
"1 c #2D4057",
"2 c #2F425A",
"3 c #324055",
"4 c #384155",
"5 c #31455E",
"6 c #39455D",
"7 c #37784B",
"8 c #324760",
"9 c #3A4760",
"0 c #344964",
"q c #3B4A63",
"w c #354B68",
"e c #3C4D6A",
"r c #3C506E",
"t c #3C5676",
"y c #42435E",
"u c #414661",
"i c #434964",
"p c #4B4C6A",
"a c #5F4761",
"s c #564F6B",
"d c #584E6B",
"f c #44516E",
"g c #4E516F",
"h c #465D68",
"j c #53506E",
"k c #4F4F70",
"l c #504F71",
"z c #435575",
"x c #4C5572",
"c c #4F527A",
"v c #525474",
"b c #535976",
"n c #565579",
"m c #58577B",
"M c #575B78",
"N c #5A5A7C",
"B c #50666C",
"V c #526574",
"C c #556975",
"Z c #556378",
"A c #5C627E",
"S c #61627E",
"D c #3C3A82",
"F c #474683",
"G c #555485",
"H c #585780",
"J c #5B5A82",
"K c #5A5888",
"L c #605F85",
"P c #5E6780",
"I c #626286",
"U c #686886",
"Y c #666589",
"T c #68678B",
"R c #6C6B8D",
"E c #71708F",
"W c #6F6E90",
"Q c #706F90",
"! c #747393",
"~ c #787796",
"^ c #7A7997",
"/ c #7C7B98",
/* pixels */
"HHHHHHHNHHHHHmHHHHHHHHHHHHHHNHHHHHHHHHHHHHHHHHHHHHHHHHHHHHHHHHHH",
"HHHHHHHJHHHJHJHHNJHHJHHJHHHJJHHHHHNJHHHHHmHJHHJHHHHJJHHHHJHHJHHH",
"HNHJHJHHHHHHHHJHHHHHHHJHHHHJHHHHHJHHJHJHHJHHJHHmHmHHmHJHHmHHHHJm",
"HJJHHJJJJJJHJJHJJHJJJHJmJJmJJJJHJHJHHHJJHJJJJHJJJJJJJHJHJJJJJHJJ",
"JJHHHJJHHJHJJHJJJJJHJHJJJHJHJHHHHJJJJHJJHJJHHJHJHJJHJHJJJHJJJHJJ",
"JJGJJJJJJJJJJJJJJJJJJJJJJJJJHn>>ilmJJJJJJJJJJJJJJJJJJJJJJJJJJJJJ",
"JJDJJJJJJJLJJJJJJJJJJJJJJJJn>oO@@&%,pNJJJLJJJJLJJJJJJJLJJJJJJJJJ",
"JHFJJJJLJJJJJZVJJJLJJJJJJn,oO@%%&*&&;%6vJJJLJJJJJJJLJJJJJJJLJJJJ",
"JJKJJLLJLJJLV7JJJLJJKIHv:.X@@$$&**;*;;1;;pHJJLJJJLLJLJJLLJJLJJLJ",
"KJGJJJJJJLJACAJJJLJLJv=.O@@$&&&&*;;;;;1122;pmJLJLJJJJJLJLJJJLJLJ",
"IJGJIJJLLLACJIIJLJJl=.O@@$$&*;;;;;;;111212321qnJJLJLLJLJLJLLLJLJ",
"KPKIJLLJJACJJJIJJl>.O@%$$&&;*;;;;;5;12122522522qNKLJLLLKJLJLLLJL",
"LLGLLLLLAVLLIIJp#O@@$$$&&&;;;;;;;,112222222552553iNJLJLLLKLLLJLL",
"LLGLLLLJCLLIJp+OO@@@$&&;;;;;;111;222222225255555851pHPLLLLLLLLLL",
"LLGLLLPCILJp+O@@$$$*&;;;;;;;1112222222222282555585883pJLLLLLLLLL",
"LLKLLPCINyoOO@@@$*&&*;;;;;;;112222222255852855585888886pLLYLLLLL",
"ILGIPCNu.OO@@$&&;&;;;;;;111121222282522855555855888850005bYIIPLL",
"IIGIBy.+@@@$&&&&;;;;;;1112112222222255525585858088880850556AIILI",
"ILnh4:#%%$&&&&;;;;;;1111222222222882285885588888880850050505pJII",
"IYszttte9:*;;;;;;;;1121122222252282828588888885008800050000009vY",
"IYMsdzttttt6:;;;;11111222222555282888885888888058005000000000009",
"YIImtsszttttte6;212122222282225528828888888850808805008088080000",
"YYTINrtssttttttt931125522552825588888888888808080800500000000000",
"YIITILftzdstttttttq622222825585588288888888880880000000800000000",
"YYYYYYYnttzdsttttttte6555552555528888888880808800508000000000000",
"YYYYYYYTJfttzdkttttttte3555858888888888088088000000000000000w00w",
"YTTYTYYYYTMrttxssttttttte585855888888008808008080000000000000000",
"TTTTTTTTUYUYxttta<xtttttttq65885888808088000000008008000000000w0",
"TTYTTWYYTTYTTIxtttgttttttttzq650888080800088080000000000w000w000",
"YWTYYYWTTTTYTTTNrttttttttttttt95808880008000800000000w000000000w",
"TTWWWWYYWTWWTTTTTNtztttttttttttt008880800080000000000q00000w00w0",
"WYYTYTWYTTTTWTWTTTTvttttttttttttth8000808000000000000w00w000ww0w",
"TRTRRRRRRTRTTRRRTRRRUbrttttttttttttw00080080000000000000w00www0w",
"RRRTTTRTRRRRRRTTRRTTTRUxtttttttttttttq8000000000000000w00w0000w0",
"RRRRRRRRRRRRRRRRRRRRRRRRUxrtttttttttttr5000080000w0w00w00w0w0w0w",
"RRRWRRRRRRTWRRWTWRWTWRRRRRIbttttttttttthq60www000000ww0ww0w000w0",
"RRRRRERRRRRRRWRWRRWRWRRRRRRWUbttttttttttttq900000w00w0000ww0w0w0",
"WRRWRRRWWRRWRRRRRRRRRRRWRWRRRRIgtttttttttttr0000w00w0ww0w00w0www",
"WQWRRQWRRQWRWWWWWRWWWRWRWRWWQRRWUzttttttttttte600w00ww0000w00www",
"RRQQQRQQQRWQWWWQQQQRERWWEWWWRR!REEUzttttttttttt00ww0000w0w00www0",
"QQQQQQQWQQQQWWQQWWQQQQWWWWWWWWWWWWWWTbtttttttttteq000w000w0wwwww",
"QQQQQQQQQQQQQQQQQQQQQQQQQQQQQQQQEWWEQQUxrttttttttteqw0w00ww0w0q0",
"QQQQQQQQQQQQQQQQQQQQQQQQQQQRQR!QQQEWQQQQUbtttttttttrq0q0ww0w0www",
"QQQQQQQQQQQ!QQQQQQQQQQQQQW!!!WQQEEEEQQQ!EETbttttttttteqwwwwwwwww",
"!QQQQQQQQQQQQQ!Q!QQQ!QQQQ!WQ!R!QQQQQ!QQQEEE!Tbtttttttttqw0wwwwww",
"QQ!Q!!Q!!Q!Q!!QQQQ!QQ!Q!EQ!QQ!QE!QQ!!QQEE!W!EERxrttttttteqwww0e0",
"!!!!Q!!!Q!!!!QQ!!!!!Q!!!Q!!!!!E!!!QQ!!!!!E!E!!E!RZrttttttrq0ww0e",
"Q!Q!!!!Q!!QQ!!!!Q!Q!!!Q!!!Q!Q!!!Q!!!Q!Q!!!!!!!!!E!EVrtttttteqw0w",
"!!!!!!!!!!!!!!!Q!!!!!!!!!!!!!!!!!!!!!!!!!!!!!!!!!!!!EAfttttttqew",
"!!!!!!!!!!!!!!!!!!!!!!!!!!!!!!!!!!!!!!!!!!!!!!!!!!!!!!EAftttttr6",
"!!!!!!~!!!~!!!!!!!!!!!!!!!!!!!!!!!!!!!!!!!!!!!!!!!!!!!~EESfttttt",
"~!~!!~!!!!!~!~!~~!~!!!~!~!~!~!~~!!~!~!!~~!!~!~!~~!~!!~!~!~!Shttt",
"!~!!~!~!!!!~~!!~!~!!!!~!!!!~!~!!~!!~!~!!!!~!~!~!!~!~!!E~!!!~!Uft",
"!~~~~~!~~~~!~~!~~!~~~~~~~~!~~~~~~~!~!~~~~~~~!~!~~~~~~~~~~~~!~~!U",
"~~~!~!~~~~~~!~~~~~~!~~~~~~!~!~~!~!~~~~~~~~~!~~~~!~~!~~!~~~~~~!~~",
"~~~~~~~~~~~~~~~~~~~~~~~~~~~~~~!^^~~~~!~~!~~~~~~~~~~~~~~~~~~~~~~~",
"~~~~~~~^~~~~~~~~~~~~~~~~~~~~~~~~~~~~~~~~~~~~~~~~~~~~~~~~~~~~~!^~",
"~~/~~/^^~~~~^~~^^^^~~^~~~^~^~^^^~^~^^~~^^^^~~^~~~^~^~^^^~~^^^^^^",
"^^^^/~^^^^^^^^^^^^^^^/^^//^^^^^^^^^^/~/^^^^^^/^^//^^^^^^^^^^^^^^",
"^^^^^^^^^^^^^^^^^^^^^^^^/~^^^^^^^^^^~/^^^^^^^^^^/~^^^^^^^^^^^^^^",
"^^^^/////^^/^/^^/////^^/^^/^/////^^///^^/////^^/^^/^///^^///^^/^",
"///////^///////////^///////////^///////////^////////////////^///",
"////////////////////////////////////////////////////////////////",
"                                                                "
};
